<svg width="28" height="28" viewBox="0 0 28 28" fill="none" xmlns="http://www.w3.org/2000/svg">
<path d="M25.6666 14C25.6666 7.56 20.44 2.33333 14 2.33333C7.55998 2.33333 2.33331 7.56 2.33331 14C2.33331 20.44 7.55998 25.6667 14 25.6667" stroke="#F1F5F9" stroke-width="2" stroke-linecap="round" stroke-linejoin="round"/>
<path d="M9.33335 3.50002H10.5C8.22501 10.3133 8.22501 17.6867 10.5 24.5H9.33335" stroke="#F1F5F9" stroke-width="2" stroke-linecap="round" stroke-linejoin="round"/>
<path d="M17.5 3.50002C18.6317 6.90668 19.2033 10.4533 19.2033 14" stroke="#F1F5F9" stroke-width="2" stroke-linecap="round" stroke-linejoin="round"/>
<path d="M3.5 18.6667V17.5C6.90667 18.6317 10.4533 19.2034 14 19.2034" stroke="#F1F5F9" stroke-width="2" stroke-linecap="round" stroke-linejoin="round"/>
<path d="M3.5 10.5C10.3133 8.22498 17.6867 8.22498 24.5 10.5" stroke="#F1F5F9" stroke-width="2" stroke-linecap="round" stroke-linejoin="round"/>
<path d="M21.2333 24.9667C23.2952 24.9667 24.9667 23.2952 24.9667 21.2333C24.9667 19.1715 23.2952 17.5 21.2333 17.5C19.1715 17.5 17.5 19.1715 17.5 21.2333C17.5 23.2952 19.1715 24.9667 21.2333 24.9667Z" stroke="#F1F5F9" stroke-width="2" stroke-linecap="round" stroke-linejoin="round"/>
<path d="M25.6667 25.6667L24.5 24.5" stroke="#F1F5F9" stroke-width="2" stroke-linecap="round" stroke-linejoin="round"/>
</svg>
