<svg width="36" height="54" viewBox="0 0 36 54" fill="none" xmlns="http://www.w3.org/2000/svg">
<path d="M14.6914 11.6211V13.6786H9.40876V31H6.87866V13.6786H1.56824V11.6211H14.6914Z" fill="#F1F5F9"/>
<path d="M24.2627 31L19.6473 23.0761H16.589V31H14.0589V11.6211H20.3146C21.7789 11.6211 23.0115 11.8713 24.0125 12.3718C25.0319 12.8723 25.7919 13.5488 26.2923 14.4014C26.7928 15.2541 27.043 16.2272 27.043 17.3208C27.043 18.6553 26.6538 19.8323 25.8753 20.8518C25.1153 21.8713 23.9661 22.5478 22.4277 22.8814L27.2932 31H24.2627ZM16.589 21.0464H20.3146C21.6862 21.0464 22.715 20.7128 23.4008 20.0455C24.0866 19.3597 24.4295 18.4515 24.4295 17.3208C24.4295 16.1716 24.0866 15.2819 23.4008 14.6517C22.7335 14.0215 21.7048 13.7064 20.3146 13.7064H16.589V21.0464Z" fill="#F1F5F9"/>
<path d="M28.0648 32.6195L34.0147 42.2951H31.151L26.5078 34.7326L22.0871 42.2951H19.279L25.201 32.6195L19.2511 22.9162H22.0871L26.758 30.5065L31.2066 22.9162H34.0425L28.0648 32.6195Z" fill="#F1F5F9"/>
</svg>
